# xmcd
#
# Track frame offsets: 
#        150
#        15867
#        32171
#        47467
#        65831
#        81678
#        97054
#        111250
#        131637
#        144453
#        162782
#        177023
#
# Disc length: 2589 seconds
#
# Revision: 0
# Processed by: cddbd v1.5.2PL0 Copyright (c) Steve Scherf et al.
# Submitted via: ExactAudioCopy v0.99pb4
#
DISCID=a00a1b0c
DTITLE=Allen, Charlie - That Was Then, This Was Now
DYEAR=2008
DGENRE=Bluegrass
TTITLE0=Can't Take Him Out Of Me
TTITLE1=I Did This To Me
TTITLE2=Why Ask Why
TTITLE3=See If I Care
TTITLE4=Everything But Me
TTITLE5=Good Time Charlie
TTITLE6=Proof
TTITLE7=Can't Live Without You
TTITLE8=She's Still Here
TTITLE9=That Was Then, This Is Now
TTITLE10=Dollar General
TTITLE11=I Don't Have Forever
EXTD=
EXTT0=
EXTT1=
EXTT2=
EXTT3=
EXTT4=
EXTT5=
EXTT6=
EXTT7=
EXTT8=
EXTT9=
EXTT10=
EXTT11=
PLAYORDER=
